<svg width="16" height="15" viewBox="0 0 16 15" fill="none" xmlns="http://www.w3.org/2000/svg">
<path d="M8.92624 6.05973C8.53474 6.05973 8.23137 6.3631 8.23137 6.73766C8.23137 7.11221 8.53474 7.41559 8.92624 7.41559C9.28385 7.41559 9.58722 7.11221 9.58722 6.73766C9.58722 6.3631 9.28385 6.05973 8.92624 6.05973ZM4.18074 6.05973C3.78923 6.05973 3.48586 6.3631 3.48586 6.73766C3.48586 7.11221 3.78923 7.41559 4.18074 7.41559C4.53835 7.41559 4.84172 7.11221 4.84172 6.73766C4.84172 6.3631 4.53835 6.05973 4.18074 6.05973Z" fill="#548010"/>
<path d="M14.3666 4.77171C13.5514 3.65313 12.4125 2.90571 11.1634 2.56844V2.57014C10.8736 2.24812 10.5465 1.95153 10.1804 1.68713C7.40597 -0.329705 3.51127 0.285516 1.48595 3.05994C-0.14616 5.31406 -0.0766723 8.3461 1.58764 10.5002L1.6012 12.7476C1.6012 12.8018 1.60968 12.856 1.62663 12.9069C1.71645 13.1933 2.02152 13.3509 2.30625 13.2611L4.4519 12.5848C5.01966 12.7865 5.60607 12.9018 6.18909 12.934L6.18062 12.9408C7.6907 14.0407 9.67026 14.3712 11.4854 13.7712L13.6395 14.4729C13.6938 14.4898 13.7497 14.5 13.8073 14.5C14.1073 14.5 14.3497 14.2576 14.3497 13.9577V11.6866C15.8428 9.65958 15.8818 6.85804 14.3666 4.77171ZM4.68917 11.3815L4.48579 11.2968L2.80792 11.8222L2.79097 10.0596L2.65538 9.90703C1.22156 8.15797 1.12665 5.63777 2.46895 3.78872C4.10276 1.54816 7.2348 1.05327 9.46857 2.67013C11.7091 4.29886 12.2057 7.42581 10.5872 9.6528C9.2296 11.5154 6.79923 12.2035 4.68917 11.3815ZM13.248 11.0934L13.1124 11.2629L13.1294 13.0255L11.4685 12.4662L11.2651 12.551C10.316 12.9035 9.30418 12.9323 8.36694 12.6696L8.36355 12.6679C9.61602 12.2832 10.7516 11.5036 11.5702 10.3816C12.865 8.59693 13.0752 6.35468 12.3227 4.44292L12.3328 4.4497C12.7226 4.72934 13.0802 5.07848 13.3836 5.50049C14.6141 7.18853 14.5446 9.48671 13.248 11.0934Z" fill="#548010"/>
<path d="M6.55349 6.05973C6.16199 6.05973 5.85861 6.3631 5.85861 6.73766C5.85861 7.11221 6.16199 7.41559 6.55349 7.41559C6.9111 7.41559 7.21447 7.11221 7.21447 6.73766C7.21447 6.3631 6.9111 6.05973 6.55349 6.05973Z" fill="#548010"/>
</svg>
