<svg width="14" height="15" viewBox="0 0 14 15" fill="none" xmlns="http://www.w3.org/2000/svg">
<path d="M3.88889 8.27778C3.68261 8.27778 3.48478 8.19583 3.33892 8.04997C3.19306 7.90411 3.11111 7.70628 3.11111 7.5C3.11111 7.29372 3.19306 7.09589 3.33892 6.95003C3.48478 6.80417 3.68261 6.72222 3.88889 6.72222C4.09517 6.72222 4.293 6.80417 4.43886 6.95003C4.58472 7.09589 4.66667 7.29372 4.66667 7.5C4.66667 7.70628 4.58472 7.90411 4.43886 8.04997C4.293 8.19583 4.09517 8.27778 3.88889 8.27778ZM3.88889 11.3889C3.68261 11.3889 3.48478 11.3069 3.33892 11.1611C3.19306 11.0152 3.11111 10.8174 3.11111 10.6111C3.11111 10.4048 3.19306 10.207 3.33892 10.0611C3.48478 9.91528 3.68261 9.83333 3.88889 9.83333C4.09517 9.83333 4.293 9.91528 4.43886 10.0611C4.58472 10.207 4.66667 10.4048 4.66667 10.6111C4.66667 10.8174 4.58472 11.0152 4.43886 11.1611C4.293 11.3069 4.09517 11.3889 3.88889 11.3889ZM6.22222 10.6111C6.22222 10.8174 6.30417 11.0152 6.45003 11.1611C6.59589 11.3069 6.79372 11.3889 7 11.3889C7.20628 11.3889 7.40411 11.3069 7.54997 11.1611C7.69583 11.0152 7.77778 10.8174 7.77778 10.6111C7.77778 10.4048 7.69583 10.207 7.54997 10.0611C7.40411 9.91528 7.20628 9.83333 7 9.83333C6.79372 9.83333 6.59589 9.91528 6.45003 10.0611C6.30417 10.207 6.22222 10.4048 6.22222 10.6111ZM10.1111 11.3889C9.90483 11.3889 9.707 11.3069 9.56114 11.1611C9.41528 11.0152 9.33333 10.8174 9.33333 10.6111C9.33333 10.4048 9.41528 10.207 9.56114 10.0611C9.707 9.91528 9.90483 9.83333 10.1111 9.83333C10.3174 9.83333 10.5152 9.91528 10.6611 10.0611C10.8069 10.207 10.8889 10.4048 10.8889 10.6111C10.8889 10.8174 10.8069 11.0152 10.6611 11.1611C10.5152 11.3069 10.3174 11.3889 10.1111 11.3889ZM6.22222 7.5C6.22222 7.70628 6.30417 7.90411 6.45003 8.04997C6.59589 8.19583 6.79372 8.27778 7 8.27778C7.20628 8.27778 7.40411 8.19583 7.54997 8.04997C7.69583 7.90411 7.77778 7.70628 7.77778 7.5C7.77778 7.29372 7.69583 7.09589 7.54997 6.95003C7.40411 6.80417 7.20628 6.72222 7 6.72222C6.79372 6.72222 6.59589 6.80417 6.45003 6.95003C6.30417 7.09589 6.22222 7.29372 6.22222 7.5ZM10.1111 8.27778C9.90483 8.27778 9.707 8.19583 9.56114 8.04997C9.41528 7.90411 9.33333 7.70628 9.33333 7.5C9.33333 7.29372 9.41528 7.09589 9.56114 6.95003C9.707 6.80417 9.90483 6.72222 10.1111 6.72222C10.3174 6.72222 10.5152 6.80417 10.6611 6.95003C10.8069 7.09589 10.8889 7.29372 10.8889 7.5C10.8889 7.70628 10.8069 7.90411 10.6611 8.04997C10.5152 8.19583 10.3174 8.27778 10.1111 8.27778ZM3.88889 3.61111C3.68261 3.61111 3.48478 3.69306 3.33892 3.83892C3.19306 3.98478 3.11111 4.18261 3.11111 4.38889C3.11111 4.59517 3.19306 4.793 3.33892 4.93886C3.48478 5.08472 3.68261 5.16667 3.88889 5.16667H10.1111C10.3174 5.16667 10.5152 5.08472 10.6611 4.93886C10.8069 4.793 10.8889 4.59517 10.8889 4.38889C10.8889 4.18261 10.8069 3.98478 10.6611 3.83892C10.5152 3.69306 10.3174 3.61111 10.1111 3.61111H3.88889Z" fill="#548010"/>
<path fill-rule="evenodd" clip-rule="evenodd" d="M2.33333 0.5C1.71449 0.5 1.121 0.745833 0.683418 1.18342C0.245833 1.621 0 2.21449 0 2.83333V12.1667C0 12.7855 0.245833 13.379 0.683418 13.8166C1.121 14.2542 1.71449 14.5 2.33333 14.5H11.6667C12.2855 14.5 12.879 14.2542 13.3166 13.8166C13.7542 13.379 14 12.7855 14 12.1667V2.83333C14 2.21449 13.7542 1.621 13.3166 1.18342C12.879 0.745833 12.2855 0.5 11.6667 0.5H2.33333ZM11.6667 2.05556H2.33333C2.12705 2.05556 1.92922 2.1375 1.78336 2.28336C1.6375 2.42922 1.55556 2.62705 1.55556 2.83333V12.1667C1.55556 12.3729 1.6375 12.5708 1.78336 12.7166C1.92922 12.8625 2.12705 12.9444 2.33333 12.9444H11.6667C11.8729 12.9444 12.0708 12.8625 12.2166 12.7166C12.3625 12.5708 12.4444 12.3729 12.4444 12.1667V2.83333C12.4444 2.62705 12.3625 2.42922 12.2166 2.28336C12.0708 2.1375 11.8729 2.05556 11.6667 2.05556Z" fill="#548010"/>
</svg>
