<svg width="17" height="14" viewBox="0 0 17 14" fill="none" xmlns="http://www.w3.org/2000/svg">
<path d="M15.2462 0.251953H2.44619C1.56619 0.251953 0.854191 0.971953 0.854191 1.85195L0.846191 11.452C0.846191 12.332 1.56619 13.052 2.44619 13.052H15.2462C16.1262 13.052 16.8462 12.332 16.8462 11.452V1.85195C16.8462 0.971953 16.1262 0.251953 15.2462 0.251953ZM14.9262 3.65195L9.27019 7.18795C9.01419 7.34795 8.67819 7.34795 8.42219 7.18795L2.76619 3.65195C2.68597 3.60692 2.61573 3.54608 2.5597 3.47312C2.50368 3.40015 2.46304 3.31658 2.44025 3.22745C2.41746 3.13832 2.41299 3.0455 2.42712 2.9546C2.44124 2.8637 2.47366 2.7766 2.52242 2.69859C2.57117 2.62058 2.63525 2.55328 2.71077 2.50075C2.78629 2.44822 2.87169 2.41156 2.96179 2.39299C3.05189 2.37442 3.14482 2.37433 3.23496 2.39271C3.32509 2.4111 3.41056 2.44758 3.48619 2.49995L8.84619 5.85195L14.2062 2.49995C14.2818 2.44758 14.3673 2.4111 14.4574 2.39271C14.5476 2.37433 14.6405 2.37442 14.7306 2.39299C14.8207 2.41156 14.9061 2.44822 14.9816 2.50075C15.0571 2.55328 15.1212 2.62058 15.17 2.69859C15.2187 2.7766 15.2511 2.8637 15.2653 2.9546C15.2794 3.0455 15.2749 3.13832 15.2521 3.22745C15.2293 3.31658 15.1887 3.40015 15.1327 3.47312C15.0767 3.54608 15.0064 3.60692 14.9262 3.65195Z" fill="#F6A428"/>
</svg>
