<svg width="34" height="35" viewBox="0 0 34 35" fill="none" xmlns="http://www.w3.org/2000/svg">
<path d="M16.4814 0.662109H17.5023C21.6734 0.662109 25.625 2.43485 29.357 5.98032C31.9805 9.16356 33.4239 12.0449 33.6873 14.6245C33.8849 15.8429 33.9837 16.6167 33.9837 16.946V18.3456C33.9837 20.6068 33.2153 23.2247 31.6786 26.1994C29.4394 29.8656 26.2507 32.4122 22.1125 33.8392C20.0159 34.377 18.3749 34.6459 17.1894 34.6459H16.7943C12.4585 34.6459 8.43555 32.9007 4.72545 29.4101C1.57515 25.9195 0 21.8636 0 17.2424V17.0448C0 16.8911 0.0329299 16.7594 0.0987898 16.6497C0.0987898 16.5728 0.0658599 16.5344 0 16.5344C0.428089 13.2634 1.30073 10.618 2.61793 8.59826C4.70349 5.20646 7.91965 2.79159 12.2664 1.35364C13.8909 0.89262 15.296 0.662109 16.4814 0.662109ZM14.1763 11.5126L14.2751 14.6245C14.2751 14.7233 14.1763 14.8275 13.9788 14.9373H12.2664V18.4444H13.9788C14.0776 18.4444 14.1763 18.5486 14.2751 18.7572V27.4013L14.3245 28.0105H17.8974V18.6584C17.9194 18.5157 17.9852 18.4444 18.095 18.4444H21.0093C21.141 18.4444 21.3112 17.3412 21.5197 15.1349V14.9373H18.095C17.9633 14.9373 17.8974 14.8714 17.8974 14.7397V12.3194C17.8974 11.2875 18.5011 10.7168 19.7086 10.607H21.7173V7.59389C21.7173 7.39631 21.0148 7.29752 19.6098 7.29752H19.0994C16.7833 7.29752 15.274 8.16468 14.5715 9.899C14.4398 10.2612 14.3081 10.7991 14.1763 11.5126Z" fill="#548010"/>
</svg>
