<svg width="40" height="40" viewBox="0 0 40 40" fill="none" xmlns="http://www.w3.org/2000/svg">
<path fill-rule="evenodd" clip-rule="evenodd" d="M5.71427 3.3335H24.7619C26.0768 3.3335 27.1428 4.39948 27.1428 5.71445V24.7621C27.1428 26.077 26.0768 27.143 24.7619 27.143H5.71427C4.3993 27.143 3.33331 26.077 3.33331 24.7621V5.71445C3.33331 4.39948 4.3993 3.3335 5.71427 3.3335ZM33.492 12.8573H34.2857C35.6007 12.8573 36.6666 13.9233 36.6666 15.2383V34.2859C36.6666 35.6008 35.6007 36.6668 34.2857 36.6668H15.2381C13.9231 36.6668 12.8571 35.6008 12.8571 34.2859V33.4922H29.5238C31.7154 33.4922 33.492 31.7156 33.492 29.524V12.8573Z" fill="#F6A428"/>
<path d="M28.7301 8.09521H29.5238C30.8388 8.09521 31.9047 9.1612 31.9047 10.4762V29.5238C31.9047 30.8388 30.8388 31.9047 29.5238 31.9047H10.4762C9.1612 31.9047 8.09521 30.8388 8.09521 29.5238V28.7301H24.7619C26.9535 28.7301 28.7301 26.9535 28.7301 24.7619V8.09521Z" fill="#FDF3D0"/>
</svg>
