<svg width="55" height="54" viewBox="0 0 55 54" fill="none" xmlns="http://www.w3.org/2000/svg">
<ellipse opacity="0.15" cx="27.1134" cy="27" rx="27.1134" ry="27" fill="#548010"/>
<path fill-rule="evenodd" clip-rule="evenodd" d="M25.3179 15.1407C25.8566 14.1969 26.1092 13.4656 26.1092 13H28.1176C28.1176 14.0144 27.6339 15.1304 27.064 16.129C26.4734 17.1637 25.6975 18.2279 24.937 19.178C22.9552 21.6531 20.5809 23.827 17.844 25.492C17.5638 25.6624 17.2736 25.8329 16.9763 26L43.1807 26V28L16.9763 28C17.2736 28.1671 17.5636 28.3375 17.8438 28.5079C20.5807 30.1729 22.9551 32.3468 24.9369 34.8219C25.6975 35.772 26.4734 36.8363 27.064 37.871C27.6339 38.8696 28.1176 39.9856 28.1176 41H26.1092C26.1092 40.5344 25.8566 39.8031 25.3179 38.8593C24.7998 37.9517 24.0949 36.9786 23.3665 36.0688C21.5136 33.7546 19.3115 31.7445 16.7971 30.2148C15.842 29.634 14.8039 29.0771 13.7885 28.6678C12.7619 28.254 11.8222 28.0173 11.0462 28.0173V25.9827C11.8222 25.9827 12.7619 25.746 13.7885 25.3322C14.8039 24.9229 15.842 24.366 16.7971 23.7852C19.3115 22.2555 21.5136 20.2454 23.3665 17.9312C24.0949 17.0214 24.7998 16.0483 25.3179 15.1407Z" fill="#548010"/>
</svg>
