<svg width="40" height="40" viewBox="0 0 40 40" fill="none" xmlns="http://www.w3.org/2000/svg">
<path fill-rule="evenodd" clip-rule="evenodd" d="M12.1808 14.9924C14.3351 11.9408 15.6799 8.43916 16.2194 4.47493C16.2708 4.09729 16.5389 3.78329 16.907 3.66974C20.6171 2.52529 22.7263 4.3439 22.6915 8.4907C22.6847 9.29565 22.6475 10.0111 22.5681 11.1054C22.3909 13.5496 22.405 14.2166 22.6796 14.6654C22.9435 15.0969 23.8002 15.2442 25.8265 14.8607C26.4659 14.7397 27.1073 14.6025 27.8177 14.4378C28.1313 14.3651 30.3901 13.8157 30.9675 13.6915C32.069 13.4544 32.8593 13.3541 33.5542 13.3966C35.4368 13.5116 36.4358 14.7199 36.6084 17.0346C36.9124 21.1111 35.9731 29.2993 35.036 32.3153C34.0784 35.3972 32.4083 36.5606 28.3996 36.6308C25.8223 36.676 21.8583 36.676 16.4891 36.6307C15.1185 36.5989 13.8764 36.3344 12.7715 35.8398C13.0816 35.1997 13.2553 34.4827 13.2553 33.7257V18.0394C13.2553 16.8878 12.8535 15.829 12.1808 14.9924Z" fill="#F6A428"/>
<path d="M6.30994 15.0981C4.66601 15.0981 3.33334 16.415 3.33334 18.0393V33.7256C3.33334 35.35 4.66601 36.6668 6.30994 36.6668H8.29433C9.93826 36.6668 11.2709 35.35 11.2709 33.7256V18.0393C11.2709 16.415 9.93826 15.0981 8.29433 15.0981H6.30994Z" fill="#FDF3D0"/>
</svg>
