<svg width="34" height="35" viewBox="0 0 34 35" fill="none" xmlns="http://www.w3.org/2000/svg">
<path d="M16.6628 0.645508H17.4531C20.9986 0.645508 24.5386 2.01211 28.073 4.7453C30.6965 7.37971 32.299 9.75067 32.8808 11.8582C33.276 12.7363 33.5394 13.7407 33.6711 14.8713C33.8028 15.9909 33.8687 16.7209 33.8687 17.0611V17.9503V18.6583C33.6053 21.0841 33.0729 23.1203 32.2716 24.7668C30.5044 28.3452 27.8041 31.0455 24.1708 32.8676C21.5694 33.9433 19.2313 34.4812 17.1568 34.4812H16.9592C12.7661 34.4812 8.92976 32.9444 5.45016 29.8709C3.26581 27.5988 1.89921 25.5955 1.35038 23.8612C0.746665 22.5111 0.346017 20.8097 0.148438 18.757V16.6495C0.148438 13.2028 1.58089 9.70128 4.4458 6.14483C8.19981 2.47862 12.2721 0.645508 16.6628 0.645508ZM10.2579 11.4466V12.0558C10.4445 13.0547 11.0757 13.5541 12.1514 13.5541C13.0295 13.5541 13.6333 13.0547 13.9626 12.0558V11.957C13.9626 10.9252 13.3259 10.3215 12.0526 10.1458C11.2733 10.1458 10.675 10.5794 10.2579 11.4466ZM18.8691 15.8592H18.6551V14.8548H15.4609V24.3716C15.4828 24.5033 15.5487 24.5692 15.6584 24.5692H18.4575C18.5892 24.5692 18.6551 24.5033 18.6551 24.3716V19.2675C18.8197 17.8624 19.3905 17.1599 20.3674 17.1599C21.498 17.1599 22.0633 17.8624 22.0633 19.2675V24.3716C22.0853 24.5033 22.1511 24.5692 22.2609 24.5692H25.274V18.2631C25.274 17.1325 24.7361 16.0952 23.6604 15.1512C22.8482 14.8219 22.3487 14.6573 22.1621 14.6573H21.1577C20.3784 14.6902 19.6155 15.0908 18.8691 15.8592ZM10.4555 15.0524V24.3716C10.4775 24.5033 10.5433 24.5692 10.6531 24.5692H13.4521C13.5839 24.5692 13.6497 24.5033 13.6497 24.3716V15.25L13.4521 14.8548H10.6531C10.5214 14.8768 10.4555 14.9426 10.4555 15.0524Z" fill="#548010"/>
</svg>
