<svg width="55" height="54" viewBox="0 0 55 54" fill="none" xmlns="http://www.w3.org/2000/svg">
<ellipse opacity="0.15" cx="27.1134" cy="27" rx="27.1134" ry="27" fill="#548010"/>
<path fill-rule="evenodd" clip-rule="evenodd" d="M28.909 15.1407C28.3703 14.1969 28.1176 13.4656 28.1176 13H26.1092C26.1092 14.0144 26.593 15.1304 27.1629 16.129C27.7535 17.1637 28.5294 18.2279 29.2899 19.178C31.2717 21.6531 33.646 23.827 36.3829 25.492C36.6631 25.6624 36.9533 25.8329 37.2506 26L11.0462 26V28L37.2506 28C36.9533 28.1671 36.6633 28.3375 36.3831 28.5079C33.6462 30.1729 31.2718 32.3468 29.29 34.8219C28.5294 35.772 27.7535 36.8363 27.1629 37.871C26.593 38.8696 26.1092 39.9856 26.1092 41H28.1176C28.1176 40.5344 28.3703 39.8031 28.909 38.8593C29.427 37.9517 30.132 36.9786 30.8603 36.0688C32.7132 33.7546 34.9154 31.7445 37.4297 30.2148C38.3849 29.634 39.423 29.0771 40.4384 28.6678C41.465 28.254 42.4047 28.0173 43.1807 28.0173V25.9827C42.4047 25.9827 41.465 25.746 40.4384 25.3322C39.423 24.9229 38.3849 24.366 37.4297 23.7852C34.9154 22.2555 32.7132 20.2454 30.8603 17.9312C30.132 17.0214 29.427 16.0483 28.909 15.1407Z" fill="#548010"/>
</svg>
