<svg width="47" height="41" viewBox="0 0 47 41" fill="none" xmlns="http://www.w3.org/2000/svg">
<path fill-rule="evenodd" clip-rule="evenodd" d="M26.1896 3.13458C25.4041 1.75261 25.0357 0.681708 25.0357 0H22.1071C22.1071 1.48544 22.8125 3.11955 23.6436 4.58172C24.5047 6.09678 25.6361 7.65508 26.7451 9.04635C29.6348 12.6706 33.097 15.8539 37.0878 18.2919C37.4963 18.5414 37.9194 18.791 38.353 19.0357L0.14286 19.0357V21.9643L38.353 21.9643C37.9195 22.209 37.4966 22.4585 37.088 22.7079C33.0972 25.146 29.6349 28.3292 26.7452 31.9535C25.6362 33.3448 24.5047 34.9032 23.6436 36.4183C22.8125 37.8804 22.1071 39.5146 22.1071 41H25.0357C25.0357 40.3183 25.4041 39.2474 26.1896 37.8654C26.945 36.5364 27.973 35.1115 29.035 33.7792C31.7368 30.3906 34.9479 27.4472 38.6142 25.2074C40.007 24.357 41.5208 23.5414 43.0014 22.9421C44.4982 22.3362 45.8685 21.9897 47 21.9897V19.0103C45.8685 19.0103 44.4982 18.6638 43.0014 18.0579C41.5208 17.4586 40.007 16.643 38.6142 15.7926C34.9479 13.5528 31.7368 10.6093 29.035 7.22075C27.973 5.88849 26.945 4.4636 26.1896 3.13458Z" fill="#F6A428"/>
</svg>
