<svg width="73" height="471" viewBox="0 0 73 471" fill="none" xmlns="http://www.w3.org/2000/svg">
<g opacity="0.2" clip-path="url(#clip0_407_50)">
<mask id="mask0_407_50" style="mask-type:luminance" maskUnits="userSpaceOnUse" x="-1" y="-34" width="289" height="505">
<path d="M-0.775063 -33.6053L-0.775063 470.977L287.395 470.977L287.395 -33.6053L-0.775063 -33.6053Z" fill="white"/>
</mask>
<g mask="url(#mask0_407_50)">
<path d="M63.0864 401.598C66.5111 401.598 69.8457 402.001 73 402.725C65.4296 404.013 58.5802 407.314 53.0827 412.226C45.8728 418.667 41.9975 427.201 41.9975 436.299C41.9975 445.397 45.8728 453.931 53.0827 460.372C58.5802 465.284 65.4296 468.585 73 469.873C69.8457 470.597 66.5111 471 63.0864 471C41.637 471 24.3333 455.461 24.3333 436.299C24.3333 417.137 41.637 401.598 63.0864 401.598Z" fill="#444444"/>
<path d="M10.8148 427.2C5.22716 427.2 0.630863 431.226 0.630863 436.298C0.630863 441.37 5.22716 445.477 10.8148 445.477C16.4926 445.477 21.0889 441.37 21.0889 436.298C21.0889 431.226 16.4926 427.2 10.8148 427.2Z" fill="#444444"/>
<path d="M63.0864 334.532C66.5111 334.532 69.8457 334.934 73 335.659C65.4296 336.947 58.5802 340.248 53.0827 345.159C45.8728 351.6 41.9975 360.135 41.9975 369.233C41.9975 378.331 45.8728 386.865 53.0827 393.306C58.5802 398.217 65.4296 401.518 73 402.806C69.8457 403.531 66.5111 403.934 63.0864 403.934C41.637 403.934 24.3333 388.395 24.3333 369.233C24.3333 350.071 41.637 334.532 63.0864 334.532Z" fill="#444444"/>
<path d="M10.8148 360.134C5.22716 360.134 0.630863 364.159 0.630863 369.232C0.630863 374.304 5.22716 378.41 10.8148 378.41C16.4926 378.41 21.0889 374.304 21.0889 369.232C21.0889 364.159 16.4926 360.134 10.8148 360.134Z" fill="#444444"/>
<path d="M63.0864 267.946C66.5111 267.946 69.8457 268.349 73 269.073C65.4296 270.361 58.5802 273.582 53.0827 278.574C45.8728 285.015 41.9975 293.549 41.9975 302.647C41.9975 311.665 45.8728 320.279 53.0827 326.72C58.5802 331.632 65.4296 334.852 73 336.14C69.8457 336.865 66.5111 337.268 63.0864 337.268C41.637 337.268 24.3333 321.729 24.3333 302.647C24.3333 283.485 41.637 267.946 63.0864 267.946Z" fill="#444444"/>
<path d="M10.8148 293.47C5.22716 293.47 0.630863 297.576 0.630863 302.648C0.630863 307.64 5.22716 311.746 10.8148 311.746C16.4926 311.746 21.0889 307.64 21.0889 302.648C21.0889 297.576 16.4926 293.47 10.8148 293.47Z" fill="#444444"/>
<path d="M63.0864 200.88C66.5111 200.88 69.8457 201.282 73 202.007C65.4296 203.295 58.5802 206.516 53.0827 211.507C45.8728 217.948 41.9975 226.483 41.9975 235.581C41.9975 244.598 45.8728 253.213 53.0827 259.654C58.5802 264.565 65.4296 267.786 73 269.074C69.8457 269.799 66.5111 270.201 63.0864 270.201C41.637 270.201 24.3333 254.662 24.3333 235.581C24.3333 216.419 41.637 200.88 63.0864 200.88Z" fill="#444444"/>
<path d="M10.8148 226.401C5.22716 226.401 0.630863 230.507 0.630863 235.58C0.630863 240.572 5.22716 244.678 10.8148 244.678C16.4926 244.678 21.0889 240.572 21.0889 235.58C21.0889 230.507 16.4926 226.401 10.8148 226.401Z" fill="#444444"/>
<path d="M63.0864 133.813C66.5111 133.813 69.8457 134.216 73 134.94C65.4296 136.229 58.5802 139.449 53.0827 144.441C45.8728 150.882 41.9975 159.416 41.9975 168.434C41.9975 177.532 45.8728 186.066 53.0827 192.507C58.5802 197.499 65.4296 200.719 73 202.008C69.8457 202.732 66.5111 203.135 63.0864 203.135C41.637 203.135 24.3333 187.596 24.3333 168.434C24.3333 149.352 41.637 133.813 63.0864 133.813Z" fill="#444444"/>
<path d="M10.8148 159.335C5.22716 159.335 0.630863 163.441 0.630863 168.433C0.630863 173.505 5.22716 177.611 10.8148 177.611C16.4926 177.611 21.0889 173.505 21.0889 168.433C21.0889 163.441 16.4926 159.335 10.8148 159.335Z" fill="#444444"/>
<path d="M63.0864 66.7449C66.5111 66.7449 69.8457 67.1474 73 67.872C65.4296 69.1602 58.5802 72.3808 53.0827 77.3726C45.8728 83.8136 41.9975 92.3479 41.9975 101.365C41.9975 110.463 45.8728 119.078 53.0827 125.439C58.5802 130.43 65.4296 133.651 73 134.939C69.8457 135.664 66.5111 136.066 63.0864 136.066C41.637 136.066 24.3333 120.527 24.3333 101.365C24.3333 82.2838 41.637 66.7449 63.0864 66.7449Z" fill="#444444"/>
<path d="M10.8148 92.2685C5.22716 92.2685 0.630863 96.3747 0.630863 101.447C0.630863 106.439 5.22716 110.545 10.8148 110.545C16.4926 110.545 21.0889 106.439 21.0889 101.447C21.0889 96.3747 16.4926 92.2685 10.8148 92.2685Z" fill="#444444"/>
<path d="M63.0864 0.0803598C66.5111 0.0803598 69.8457 0.482944 73 1.20756C65.4296 2.49576 58.5802 5.79678 53.0827 10.7081C45.8728 17.1491 41.9975 25.6835 41.9975 34.7814C41.9975 43.8794 45.8728 52.4137 53.0827 58.8547C58.5802 63.766 65.4296 67.067 73 68.3552C69.8457 69.0799 66.5111 69.4824 63.0864 69.4824C41.637 69.4824 24.3333 53.9435 24.3333 34.7814C24.3333 15.6194 41.637 0.0803598 63.0864 0.0803598Z" fill="#444444"/>
<path d="M10.8148 25.6846C5.22716 25.6846 0.630863 29.7102 0.630863 34.7825C0.630863 39.8548 5.22716 43.9609 10.8148 43.9609C16.4926 43.9609 21.0889 39.8548 21.0889 34.7825C21.0889 29.7102 16.4926 25.6846 10.8148 25.6846Z" fill="#444444"/>
</g>
</g>
<defs>
<clipPath id="clip0_407_50">
<rect width="471" height="73" fill="white" transform="matrix(0 -1 1 0 0 471)"/>
</clipPath>
</defs>
</svg>
