<svg width="17" height="17" viewBox="0 0 17 17" fill="none" xmlns="http://www.w3.org/2000/svg">
<path d="M15.2785 11.5633L13.0162 11.305C12.7502 11.2737 12.4805 11.3032 12.2275 11.3911C11.9745 11.479 11.7447 11.6232 11.5555 11.8126L9.91659 13.4515C7.3881 12.1656 5.33292 10.1104 4.04697 7.58188L5.69474 5.93411C6.07773 5.55112 6.26478 5.01671 6.20243 4.47339L5.94413 2.22886C5.89363 1.79436 5.68511 1.39361 5.35827 1.1029C5.03142 0.812186 4.60909 0.651825 4.17166 0.652345H2.63078C1.6243 0.652345 0.787054 1.48959 0.849402 2.49607C1.32147 10.1025 7.40485 16.177 15.0024 16.6491C16.0089 16.7114 16.8461 15.8742 16.8461 14.8677V13.3268C16.855 12.4272 16.1781 11.6701 15.2785 11.5633Z" fill="#F6A428"/>
</svg>
