<svg width="35" height="35" viewBox="0 0 35 35" fill="none" xmlns="http://www.w3.org/2000/svg">
<path d="M15.8457 0.694336H18.2661C20.8565 0.694336 23.8038 1.76456 27.1077 3.90502C29.5994 5.84789 31.4051 8.09262 32.5247 10.6392C33.5346 13.0651 34.0395 15.1122 34.0395 16.7807V18.1802C34.0395 21.9342 32.4973 25.6553 29.4128 29.3435C25.8345 32.8231 21.6798 34.5629 16.9489 34.5629C11.0434 34.5629 6.21919 31.8133 2.47615 26.3139C0.873561 23.3502 0.0722656 20.4359 0.0722656 17.571C0.0722656 12.851 2.01513 8.59755 5.90087 4.81059C9.52316 2.06642 12.8381 0.694336 15.8457 0.694336ZM8.00838 15.3647V20.6006C8.00838 23.4545 8.91395 25.359 10.7251 26.3139C11.5374 26.775 14.1498 26.9451 18.5624 26.8243C21.9432 26.8243 23.8861 26.4566 24.391 25.7212C25.5326 24.8101 26.1034 23.3008 26.1034 21.1933V14.4591C26.1034 11.8027 25.1649 10.0629 23.2879 9.23969L22.0365 8.82806L20.7687 8.72927H13.4418C10.8294 8.72927 9.08409 10.0026 8.20596 12.5492C8.07424 13.3285 8.00838 14.267 8.00838 15.3647ZM13.7382 10.3428H20.7687C23.3153 10.3428 24.5886 11.682 24.5886 14.3603V21.4897C24.2483 23.9704 23.211 25.2108 21.4767 25.2108H18.5624C17.2013 25.2108 15.7634 25.2437 14.2486 25.3096C11.724 25.3096 10.2476 24.5083 9.81953 22.9057C9.68781 22.0166 9.62195 20.6774 9.62195 18.8882V16.6654C9.62195 13.3175 9.89088 11.6436 10.4287 11.6436C10.9666 10.7764 12.0697 10.3428 13.7382 10.3428ZM20.8675 13.0596C21.1639 13.7292 21.5371 14.0639 21.9871 14.0639C22.4372 14.0639 22.8049 13.7292 23.0903 13.0596C22.9366 12.2473 22.5305 11.8412 21.8719 11.8412C21.2023 12.0497 20.8675 12.4559 20.8675 13.0596ZM12.4375 17.8838C12.4375 20.0462 13.6778 21.55 16.1585 22.3953H18.1673C20.5712 21.5281 21.7731 19.9914 21.7731 17.785V17.571C21.7731 16.3197 21.1365 15.1506 19.8632 14.0639C18.996 13.4602 18.0959 13.1584 17.1629 13.1584H17.0641C14.9895 13.1584 13.5461 14.2286 12.7338 16.369C12.6241 16.5117 12.5253 17.0167 12.4375 17.8838ZM17.0641 14.7555H17.1629C18.6118 14.7555 19.5833 15.5293 20.0772 17.077C20.1431 17.1649 20.176 17.4009 20.176 17.785C19.8577 19.8596 18.8533 20.8969 17.1629 20.8969C15.8238 20.8969 14.8523 20.2274 14.2486 18.8882C14.1608 18.7784 14.0894 18.4436 14.0346 17.8838C14.276 15.7983 15.2859 14.7555 17.0641 14.7555Z" fill="#548010"/>
</svg>
