<svg width="40" height="40" viewBox="0 0 40 40" fill="none" xmlns="http://www.w3.org/2000/svg">
<path d="M25.5555 27.1427V34.2856C25.5555 35.6006 24.4895 36.6666 23.1746 36.6666H5.71427C4.3993 36.6666 3.33331 35.6006 3.33331 34.2856V16.8253C3.33331 15.5103 4.3993 14.4443 5.71427 14.4443H12.8571V23.1745C12.8571 25.3661 14.6338 27.1427 16.8254 27.1427H25.5555Z" fill="#FDF3D0"/>
<path fill-rule="evenodd" clip-rule="evenodd" d="M16.8254 3.3335H34.2857C35.6007 3.3335 36.6667 4.39948 36.6667 5.71445V23.1748C36.6667 24.4897 35.6007 25.5557 34.2857 25.5557H16.8254C15.5104 25.5557 14.4445 24.4897 14.4445 23.1748V5.71445C14.4445 4.39948 15.5104 3.3335 16.8254 3.3335Z" fill="#F6A428"/>
</svg>
