<svg width="48" height="41" viewBox="0 0 48 41" fill="none" xmlns="http://www.w3.org/2000/svg">
<path fill-rule="evenodd" clip-rule="evenodd" d="M21.409 3.13458C22.1945 1.75261 22.5629 0.681708 22.5629 0H25.4915C25.4915 1.48544 24.7861 3.11955 23.955 4.58172C23.0939 6.09678 21.9626 7.65508 20.8535 9.04635C17.9638 12.6706 14.5017 15.8539 10.5109 18.2919C10.1023 18.5414 9.67918 18.791 9.24566 19.0357L47.4558 19.0357V21.9643L9.24566 21.9643C9.67918 22.209 10.102 22.4585 10.5106 22.7079C14.5014 25.146 17.9637 28.3292 20.8534 31.9535C21.9625 33.3448 23.0939 34.9032 23.955 36.4183C24.7861 37.8804 25.4915 39.5146 25.4915 41H22.5629C22.5629 40.3183 22.1945 39.2474 21.409 37.8654C20.6536 36.5364 19.6256 35.1115 18.5636 33.7792C15.8618 30.3906 12.6507 27.4472 8.98439 25.2074C7.59166 24.357 6.07786 23.5414 4.59728 22.9421C3.10039 22.3362 1.7301 21.9897 0.598633 21.9897V19.0103C1.7301 19.0103 3.10039 18.6638 4.59728 18.0579C6.07786 17.4586 7.59166 16.643 8.98439 15.7926C12.6507 13.5528 15.8618 10.6093 18.5636 7.22075C19.6256 5.88849 20.6536 4.4636 21.409 3.13458Z" fill="#F6A428"/>
</svg>
