<svg width="14" height="16" viewBox="0 0 14 16" fill="none" xmlns="http://www.w3.org/2000/svg">
<path d="M11.6096 1.94087C8.97887 -0.646956 4.71355 -0.646956 2.08278 1.94087C1.45816 2.55109 0.961841 3.28003 0.62298 4.08482C0.284119 4.88961 0.109558 5.75402 0.109558 6.62725C0.109558 7.50047 0.284119 8.36488 0.62298 9.16967C0.961841 9.97446 1.45816 10.7034 2.08278 11.3136L6.84579 16L11.6096 11.3136C12.2342 10.7034 12.7306 9.97446 13.0694 9.16967C13.4083 8.36488 13.5829 7.50047 13.5829 6.62725C13.5829 5.75402 13.4083 4.88961 13.0694 4.08482C12.7306 3.28003 12.2342 2.55109 11.6096 1.94087ZM6.84579 8.84201C6.28325 8.84201 5.75525 8.62306 5.35692 8.22558C4.9626 7.83042 4.74115 7.29497 4.74115 6.73672C4.74115 6.17847 4.9626 5.64302 5.35692 5.24786C5.7544 4.85038 6.28325 4.63143 6.84579 4.63143C7.40832 4.63143 7.93717 4.85038 8.33465 5.24786C8.72897 5.64302 8.95042 6.17847 8.95042 6.73672C8.95042 7.29497 8.72897 7.83042 8.33465 8.22558C7.93717 8.62306 7.40832 8.84201 6.84579 8.84201Z" fill="#F6A428"/>
</svg>
