<svg width="34" height="35" viewBox="0 0 34 35" fill="none" xmlns="http://www.w3.org/2000/svg">
<path d="M16.6834 0.645508H17.3749C21.1509 0.645508 24.7951 2.08345 28.3077 4.95935C32.0397 8.7463 33.9057 12.7199 33.9057 16.88V18.4936C33.9057 20.9085 32.9727 23.746 31.1067 27.006C28.8016 30.299 25.6623 32.5712 21.6887 33.8226C19.8447 34.2836 18.3079 34.5141 17.0785 34.5141H16.9798C12.3805 34.5141 8.26978 32.7139 4.64749 29.1136C1.57402 25.601 0.0372925 21.7592 0.0372925 17.588C0.0372925 13.1315 1.77709 9.05365 5.25669 5.35451C8.87898 2.21517 12.6879 0.645508 16.6834 0.645508ZM7.97341 8.05477L15.2839 17.8679V17.9338L7.90755 25.9687H9.48819L16.0742 18.9217C19.5648 23.5978 21.343 25.9468 21.4088 25.9687H27.0069L19.2355 15.497V15.4311C19.5099 15.2006 21.793 12.7418 26.0849 8.05477H24.5042L18.511 14.4432H18.3793C15.4266 10.3928 13.824 8.26333 13.5715 8.05477H7.97341ZM10.5419 9.24026H12.9788C20.6624 19.4266 24.5042 24.5857 24.5042 24.7174H22.0016C21.8479 24.6076 17.9841 19.4705 10.4102 9.30612L10.5419 9.24026Z" fill="#548010"/>
</svg>
