<svg width="40" height="40" viewBox="0 0 40 40" fill="none" xmlns="http://www.w3.org/2000/svg">
<path d="M19.1585 27.0952C19.6234 26.6302 20.3772 26.6302 20.8421 27.0952C21.3066 27.5601 21.3069 28.314 20.8421 28.7788L19.6995 29.9204H27.5394V32.3012H19.6995L20.8421 33.4438C21.3068 33.9086 21.3067 34.6625 20.8421 35.1274C20.3772 35.5923 19.6234 35.5922 19.1585 35.1274L15.9837 31.9526C15.5189 31.4877 15.5188 30.7339 15.9837 30.269L19.1585 27.0952ZM8.04719 15.9838C8.5121 15.5189 9.26587 15.5189 9.73078 15.9838L12.9056 19.1586C13.3701 19.6236 13.3704 20.3774 12.9056 20.8422C12.4408 21.307 11.6869 21.3068 11.222 20.8422L10.0794 19.6997V27.5395H7.69855V19.6997L6.55598 20.8422C6.0911 21.3069 5.33723 21.3069 4.87238 20.8422C4.40754 20.3774 4.40768 19.6236 4.87238 19.1586L8.04719 15.9838ZM32.3011 20.3002L33.4437 19.1586C33.9086 18.6937 34.6624 18.6937 35.1273 19.1586C35.5921 19.6236 35.5921 20.3774 35.1273 20.8422L31.9525 24.0161C31.72 24.2485 31.4153 24.3647 31.1107 24.3647C30.8061 24.3646 30.5012 24.2484 30.2689 24.0161L27.095 20.8422C26.6301 20.3773 26.6301 19.6235 27.095 19.1586C27.5599 18.6937 28.3137 18.6937 28.7786 19.1586L29.9202 20.3002V12.4604H32.3011V20.3002ZM19.1585 4.8725C19.6234 4.4078 20.3773 4.40766 20.8421 4.8725L24.0159 8.04731C24.4808 8.51222 24.4808 9.26599 24.0159 9.7309L20.8421 12.9057C20.3773 13.3705 19.6235 13.3703 19.1585 12.9057C18.6936 12.4408 18.6936 11.687 19.1585 11.2221L20.3001 10.0795H12.4603V7.69868H20.3001L19.1585 6.5561C18.6936 6.09119 18.6936 5.33741 19.1585 4.8725Z" fill="#FDF3D0"/>
<path d="M12.0638 25.5562C13.3786 25.5563 14.4447 26.6222 14.4447 27.937V34.2856C14.4447 35.6005 13.3786 36.6663 12.0638 36.6665H5.7142C4.39928 36.6665 3.33334 35.6006 3.33334 34.2856V27.937C3.33334 26.6221 4.39928 25.5562 5.7142 25.5562H12.0638ZM34.2855 25.5562C35.6005 25.5562 36.6664 26.622 36.6664 27.937V34.2856C36.6664 35.6006 35.6005 36.6665 34.2855 36.6665H27.9369C26.6219 36.6665 25.556 35.6006 25.556 34.2856V27.937C25.556 26.622 26.6219 25.5562 27.9369 25.5562H34.2855ZM12.0638 3.3335C13.3786 3.33366 14.4446 4.39954 14.4447 5.71436V12.064C14.4445 13.3787 13.3785 14.4447 12.0638 14.4448H5.7142C4.39939 14.4448 3.33351 13.3788 3.33334 12.064V5.71436C3.33339 4.39947 4.39931 3.33355 5.7142 3.3335H12.0638ZM34.2855 3.3335C35.6004 3.3335 36.6663 4.39943 36.6664 5.71436V12.064C36.6662 13.3788 35.6004 14.4448 34.2855 14.4448H27.9369C26.622 14.4448 25.5562 13.3788 25.556 12.064V5.71436C25.5561 4.39943 26.6219 3.3335 27.9369 3.3335H34.2855Z" fill="#F6A428"/>
</svg>
